<?xml version="1.0" encoding="UTF-8"?>
<svg xmlns="http://www.w3.org/2000/svg" viewBox="0 0 1024 1024" width="1024" height="1024">
  <!-- Main four-pointed star - 50% bigger -->
  <g fill="white">
    <!-- Vertical arm -->
    <path d="M 512 150 
             Q 512 450, 600 512 
             Q 512 574, 512 874 
             Q 512 574, 424 512 
             Q 512 450, 512 150 Z"/>
    <!-- Horizontal arm -->
    <path d="M 150 512 
             Q 450 512, 512 424 
             Q 574 512, 874 512 
             Q 574 512, 512 600 
             Q 450 512, 150 512 Z"/>
  </g>
  
  <!-- Inner bright core - scaled up -->
  <g fill="white">
    <path d="M 512 300 
             Q 512 475, 560 512 
             Q 512 549, 512 724 
             Q 512 549, 464 512 
             Q 512 475, 512 300 Z"/>
    <path d="M 300 512 
             Q 475 512, 512 464 
             Q 549 512, 724 512 
             Q 549 512, 512 560 
             Q 475 512, 300 512 Z"/>
  </g>
  
  <!-- Accent sparkles - 50% bigger -->
  <g fill="white" opacity="0.9">
    <!-- Top-left -->
    <path d="M 220 230 Q 220 285, 238 303 Q 220 321, 220 376 Q 220 321, 202 303 Q 220 285, 220 230 Z"/>
    <path d="M 148 303 Q 202 303, 220 285 Q 238 303, 292 303 Q 238 303, 220 321 Q 202 303, 148 303 Z"/>
    
    <!-- Top-right -->
    <path d="M 820 200 Q 820 250, 835 265 Q 820 280, 820 330 Q 820 280, 805 265 Q 820 250, 820 200 Z"/>
    <path d="M 760 265 Q 805 265, 820 250 Q 835 265, 880 265 Q 835 265, 820 280 Q 805 265, 760 265 Z"/>
    
    <!-- Bottom-right -->
    <path d="M 810 700 Q 810 745, 823 758 Q 810 771, 810 816 Q 810 771, 797 758 Q 810 745, 810 700 Z"/>
    <path d="M 758 758 Q 797 758, 810 745 Q 823 758, 862 758 Q 823 758, 810 771 Q 797 758, 758 758 Z"/>
    
    <!-- Bottom-left -->
    <path d="M 220 710 Q 220 750, 232 762 Q 220 774, 220 814 Q 220 774, 208 762 Q 220 750, 220 710 Z"/>
    <path d="M 175 762 Q 208 762, 220 750 Q 232 762, 265 762 Q 232 762, 220 774 Q 208 762, 175 762 Z"/>
  </g>
  
  <!-- Tiny dots - repositioned -->
  <circle cx="160" cy="450" r="6" fill="white" opacity="0.7"/>
  <circle cx="870" cy="570" r="5" fill="white" opacity="0.6"/>
  <circle cx="400" cy="160" r="5" fill="white" opacity="0.6"/>
  <circle cx="620" cy="870" r="5" fill="white" opacity="0.6"/>
</svg>
