<?xml version="1.0" encoding="UTF-8"?>
<svg xmlns="http://www.w3.org/2000/svg" viewBox="0 0 1024 1024" width="1024" height="1024">
  <!-- Main four-pointed star -->
  <g fill="white">
    <!-- Vertical arm -->
    <path d="M 512 270 
             Q 512 480, 560 512 
             Q 512 544, 512 754 
             Q 512 544, 464 512 
             Q 512 480, 512 270 Z"/>
    <!-- Horizontal arm -->
    <path d="M 270 512 
             Q 480 512, 512 464 
             Q 544 512, 754 512 
             Q 544 512, 512 560 
             Q 480 512, 270 512 Z"/>
  </g>
  
  <!-- Inner bright core -->
  <g fill="white">
    <path d="M 512 380 
             Q 512 490, 540 512 
             Q 512 534, 512 644 
             Q 512 534, 484 512 
             Q 512 490, 512 380 Z"/>
    <path d="M 380 512 
             Q 490 512, 512 484 
             Q 534 512, 644 512 
             Q 534 512, 512 540 
             Q 490 512, 380 512 Z"/>
  </g>
  
  <!-- Accent sparkles -->
  <g fill="white" opacity="0.9">
    <!-- Top-left -->
    <path d="M 287 330 Q 287 360, 297 370 Q 287 380, 287 410 Q 287 380, 277 370 Q 287 360, 287 330 Z"/>
    <path d="M 247 370 Q 277 370, 287 360 Q 297 370, 327 370 Q 297 370, 287 380 Q 277 370, 247 370 Z"/>
    
    <!-- Top-right -->
    <path d="M 760 300 Q 760 325, 768 333 Q 760 341, 760 366 Q 760 341, 752 333 Q 760 325, 760 300 Z"/>
    <path d="M 727 333 Q 752 333, 760 325 Q 768 333, 793 333 Q 768 333, 760 341 Q 752 333, 727 333 Z"/>
    
    <!-- Bottom-right -->
    <path d="M 720 700 Q 720 720, 726 726 Q 720 732, 720 752 Q 720 732, 714 726 Q 720 720, 720 700 Z"/>
    <path d="M 694 726 Q 714 726, 720 720 Q 726 726, 746 726 Q 726 726, 720 732 Q 714 726, 694 726 Z"/>
    
    <!-- Bottom-left -->
    <path d="M 300 680 Q 300 697, 305 702 Q 300 707, 300 724 Q 300 707, 295 702 Q 300 697, 300 680 Z"/>
    <path d="M 278 702 Q 295 702, 300 697 Q 305 702, 322 702 Q 305 702, 300 707 Q 295 702, 278 702 Z"/>
  </g>
  
  <!-- Tiny dots -->
  <circle cx="250" cy="480" r="4" fill="white" opacity="0.7"/>
  <circle cx="780" cy="540" r="3" fill="white" opacity="0.6"/>
  <circle cx="450" cy="250" r="3" fill="white" opacity="0.6"/>
  <circle cx="560" cy="780" r="3" fill="white" opacity="0.6"/>
</svg>
